# xmcd CD database file
#
# Track frame offsets:
#	150
#	13400
#	27870
#	46145
#	64240
#
# Disc length: 1228 seconds
#
# Revision: 2
# Processed by: cddbd v1.4b41PL1 Copyright (c) Steve Scherf et al.
# Submitted via: Feurio! 1.52 - http://www.feurio.com
#
DISCID=3c04ca05
DTITLE=Down Home Blues Band - Every Day
DYEAR=1900
DGENRE=
TTITLE0=Let Me Love You Baby
TTITLE1=Wish You Would
TTITLE2=My First Plea
TTITLE3=Every Day I Have The Blues
TTITLE4=Right Place Wrong Time
EXTD=
EXTT0=
EXTT1=
EXTT2=
EXTT3=
EXTT4=
PLAYORDER=
